<svg xmlns="http://www.w3.org/2000/svg" xmlns:xlink="http://www.w3.org/1999/xlink" width="500" zoomAndPan="magnify" viewBox="0 0 375 374.999991" height="500" preserveAspectRatio="xMidYMid meet" version="1.0"><defs><clipPath id="ce4745d7af"><path d="M 167 64 L 320.476562 64 L 320.476562 279 L 167 279 Z M 167 64 " clip-rule="nonzero"/></clipPath><clipPath id="3d9af81e69"><path d="M 63.5 275.34375 L 117.429688 275.34375 L 117.429688 329.273438 L 63.5 329.273438 Z M 63.5 275.34375 " clip-rule="nonzero"/></clipPath><clipPath id="59d2031f6c"><path d="M 253.019531 233.296875 L 294.738281 233.296875 L 294.738281 275.015625 L 253.019531 275.015625 Z M 253.019531 233.296875 " clip-rule="nonzero"/></clipPath><clipPath id="f2292fdc95"><path d="M 256 236 L 294.738281 236 L 294.738281 275.015625 L 256 275.015625 Z M 256 236 " clip-rule="nonzero"/></clipPath><clipPath id="f7e64e7412"><path d="M 170.089844 198.609375 L 213.84375 198.609375 L 213.84375 241 L 170.089844 241 Z M 170.089844 198.609375 " clip-rule="nonzero"/></clipPath><clipPath id="6c8436ee27"><path d="M 126.8125 108.167969 L 153.269531 108.167969 L 153.269531 134.621094 L 126.8125 134.621094 Z M 126.8125 108.167969 " clip-rule="nonzero"/></clipPath></defs><g clip-path="url(#ce4745d7af)"><path fill="#38b6ff" d="M 220.058594 64.328125 L 204.761719 193.472656 C 203.125 193.207031 201.449219 193.089844 199.703125 193.136719 C 196.277344 193.210938 192.777344 193.890625 189.316406 195.140625 C 174.589844 200.457031 164.980469 214.382812 167.429688 226.839844 C 169.289062 236.355469 177.9375 242.742188 188.941406 242.742188 C 189.171875 242.742188 189.40625 242.742188 189.632812 242.738281 C 193.0625 242.65625 196.566406 241.980469 200.039062 240.726562 C 211.902344 236.441406 220.839844 226.332031 222.292969 215.484375 L 234.359375 113.476562 L 296.15625 146.335938 L 286.355469 229.222656 C 284.761719 228.972656 283.074219 228.863281 281.445312 228.90625 C 278.023438 228.988281 274.527344 229.660156 271.0625 230.910156 C 256.351562 236.226562 246.734375 250.148438 249.175781 262.625 C 251.046875 272.136719 259.6875 278.523438 270.691406 278.523438 C 270.917969 278.523438 271.148438 278.519531 271.382812 278.515625 C 274.8125 278.433594 278.3125 277.757812 281.789062 276.496094 C 293.632812 272.222656 302.511719 262.164062 303.878906 251.425781 L 320.011719 115.164062 L 220.058594 64.328125 " fill-opacity="1" fill-rule="nonzero"/></g><path fill="#38b6ff" d="M 132.90625 169.398438 C 130.816406 167.75 128.550781 166.167969 125.972656 164.542969 C 124.808594 163.8125 123.628906 163.117188 122.488281 162.472656 C 121.140625 161.714844 119.925781 161.085938 118.796875 160.515625 C 117.375 159.804688 115.980469 159.128906 114.605469 158.464844 C 111.714844 157.066406 108.980469 155.757812 106.621094 154.320312 C 103.5 152.457031 101.214844 150.414062 99.828125 148.234375 C 99.433594 147.613281 98.597656 145.890625 97.925781 144.507812 L 96.832031 142.269531 C 95.816406 140.191406 94.660156 137.84375 92.347656 134.761719 C 90.042969 131.703125 86.5625 129.949219 82.816406 129.949219 C 81.335938 129.949219 79.875 130.21875 78.5 130.75 C 77.96875 130.949219 77.4375 131.191406 76.910156 131.476562 C 71.484375 134.433594 68.523438 140.894531 69.71875 147.195312 L 97.53125 269.527344 C 94.679688 269.851562 91.796875 270.570312 88.925781 271.667969 C 84.6875 273.292969 80.621094 275.6875 76.847656 278.789062 C 60.804688 291.972656 54.878906 313.527344 63.371094 327.871094 C 67.859375 335.441406 75.785156 339.789062 85.101562 339.789062 C 89.109375 339.789062 93.207031 339 97.28125 337.433594 C 101.535156 335.808594 105.605469 333.40625 109.394531 330.296875 C 122.328125 319.648438 129.003906 303.15625 125.984375 289.1875 L 101.460938 181.3125 C 102.75 181.78125 104.019531 182.214844 105.273438 182.648438 C 106.59375 183.105469 107.890625 183.550781 109.042969 183.96875 L 112.070312 185.144531 C 113.234375 185.640625 114.125 186.039062 114.90625 186.417969 C 116.757812 187.296875 118.558594 188.269531 120.289062 189.320312 C 127.796875 193.855469 133.132812 199.6875 136.175781 206.71875 C 139.476562 214.085938 140.292969 223.628906 138.46875 233.640625 C 137.796875 237.464844 139.980469 241.179688 143.558594 242.285156 C 145.09375 242.75 146.742188 242.703125 148.304688 242.113281 C 150.558594 241.246094 152.253906 239.382812 152.949219 237.027344 C 156.929688 223.808594 157.179688 210.277344 153.664062 198.96875 C 150.207031 187.664062 143.039062 177.445312 132.90625 169.398438 " fill-opacity="1" fill-rule="nonzero"/><path fill="#38b6ff" d="M 183.78125 63.21875 C 183.035156 62.066406 182.195312 60.914062 181.210938 59.699219 C 180.765625 59.152344 180.304688 58.613281 179.859375 58.109375 C 179.328125 57.515625 178.84375 57.007812 178.386719 56.539062 C 177.8125 55.964844 177.242188 55.402344 176.6875 54.851562 C 175.511719 53.6875 174.394531 52.59375 173.484375 51.5 C 172.277344 50.070312 171.507812 48.699219 171.191406 47.40625 C 171.101562 47.039062 170.980469 46.0625 170.886719 45.273438 L 170.71875 44.003906 C 170.570312 42.824219 170.402344 41.484375 169.789062 39.601562 C 169.175781 37.722656 167.773438 36.292969 165.941406 35.667969 C 165.222656 35.425781 164.46875 35.316406 163.707031 35.339844 C 163.417969 35.351562 163.121094 35.378906 162.816406 35.4375 C 159.679688 35.96875 157.164062 38.625 156.699219 41.890625 L 149.898438 106.097656 C 148.453125 105.785156 146.933594 105.65625 145.347656 105.710938 C 143.011719 105.796875 140.640625 106.289062 138.285156 107.175781 C 128.273438 110.921875 121.804688 120.4375 123.554688 128.832031 C 124.480469 133.269531 127.617188 136.703125 132.160156 138.253906 C 134.105469 138.914062 136.234375 139.214844 138.480469 139.132812 C 140.820312 139.046875 143.203125 138.550781 145.570312 137.671875 C 153.640625 134.632812 159.632812 127.71875 160.484375 120.40625 L 166.480469 63.789062 C 167.035156 64.230469 167.578125 64.652344 168.117188 65.074219 C 168.6875 65.515625 169.242188 65.945312 169.734375 66.34375 L 171.011719 67.421875 C 171.496094 67.855469 171.863281 68.195312 172.183594 68.511719 C 172.941406 69.242188 173.65625 70.015625 174.324219 70.816406 C 177.222656 74.277344 178.851562 78 179.167969 81.9375 C 179.546875 86.070312 178.355469 90.859375 175.800781 95.429688 C 174.84375 97.179688 175.285156 99.351562 176.839844 100.484375 C 177.511719 100.96875 178.328125 101.222656 179.1875 101.191406 C 180.429688 101.144531 181.566406 100.515625 182.292969 99.488281 C 186.433594 93.707031 188.800781 87.164062 188.972656 81.070312 C 189.167969 74.988281 187.375 68.824219 183.78125 63.21875 " fill-opacity="1" fill-rule="nonzero"/><g clip-path="url(#3d9af81e69)"><path fill="#38b6ff" d="M 117.570312 302.378906 C 117.570312 303.265625 117.527344 304.148438 117.441406 305.03125 C 117.355469 305.910156 117.222656 306.785156 117.050781 307.65625 C 116.878906 308.523438 116.664062 309.378906 116.40625 310.226562 C 116.148438 311.074219 115.851562 311.90625 115.511719 312.726562 C 115.175781 313.542969 114.796875 314.34375 114.378906 315.125 C 113.960938 315.90625 113.507812 316.664062 113.015625 317.398438 C 112.523438 318.136719 111.996094 318.847656 111.433594 319.53125 C 110.871094 320.214844 110.277344 320.871094 109.652344 321.496094 C 109.027344 322.125 108.371094 322.71875 107.6875 323.277344 C 107.003906 323.839844 106.292969 324.367188 105.554688 324.859375 C 104.820312 325.351562 104.0625 325.804688 103.28125 326.222656 C 102.5 326.640625 101.699219 327.019531 100.882812 327.359375 C 100.0625 327.695312 99.230469 327.996094 98.382812 328.25 C 97.535156 328.507812 96.679688 328.722656 95.808594 328.894531 C 94.941406 329.070312 94.066406 329.199219 93.1875 329.285156 C 92.304688 329.371094 91.421875 329.414062 90.535156 329.414062 C 89.652344 329.414062 88.765625 329.371094 87.886719 329.285156 C 87.003906 329.199219 86.128906 329.070312 85.261719 328.894531 C 84.394531 328.722656 83.535156 328.507812 82.6875 328.25 C 81.839844 327.996094 81.007812 327.695312 80.191406 327.359375 C 79.371094 327.019531 78.574219 326.640625 77.792969 326.222656 C 77.011719 325.804688 76.253906 325.351562 75.515625 324.859375 C 74.78125 324.367188 74.070312 323.839844 73.386719 323.277344 C 72.699219 322.71875 72.046875 322.125 71.417969 321.496094 C 70.792969 320.871094 70.199219 320.214844 69.636719 319.53125 C 69.074219 318.847656 68.546875 318.136719 68.058594 317.398438 C 67.566406 316.664062 67.109375 315.90625 66.691406 315.125 C 66.277344 314.34375 65.898438 313.542969 65.558594 312.726562 C 65.21875 311.90625 64.921875 311.074219 64.664062 310.226562 C 64.40625 309.378906 64.191406 308.523438 64.019531 307.65625 C 63.847656 306.785156 63.71875 305.910156 63.628906 305.03125 C 63.542969 304.148438 63.5 303.265625 63.5 302.378906 C 63.5 301.496094 63.542969 300.613281 63.628906 299.730469 C 63.71875 298.847656 63.847656 297.972656 64.019531 297.105469 C 64.191406 296.238281 64.40625 295.378906 64.664062 294.53125 C 64.921875 293.683594 65.21875 292.851562 65.558594 292.035156 C 65.898438 291.214844 66.277344 290.417969 66.691406 289.636719 C 67.109375 288.855469 67.566406 288.097656 68.058594 287.359375 C 68.546875 286.625 69.074219 285.914062 69.636719 285.230469 C 70.199219 284.542969 70.792969 283.890625 71.417969 283.261719 C 72.046875 282.636719 72.699219 282.042969 73.386719 281.480469 C 74.070312 280.917969 74.78125 280.394531 75.515625 279.902344 C 76.253906 279.410156 77.011719 278.953125 77.792969 278.535156 C 78.574219 278.121094 79.371094 277.742188 80.191406 277.402344 C 81.007812 277.0625 81.839844 276.765625 82.6875 276.507812 C 83.535156 276.25 84.394531 276.035156 85.261719 275.863281 C 86.128906 275.691406 87.003906 275.5625 87.886719 275.476562 C 88.765625 275.386719 89.652344 275.34375 90.535156 275.34375 C 91.421875 275.34375 92.304688 275.386719 93.1875 275.476562 C 94.066406 275.5625 94.941406 275.691406 95.808594 275.863281 C 96.679688 276.035156 97.535156 276.25 98.382812 276.507812 C 99.230469 276.765625 100.0625 277.0625 100.882812 277.402344 C 101.699219 277.742188 102.5 278.121094 103.28125 278.535156 C 104.0625 278.953125 104.820312 279.410156 105.554688 279.902344 C 106.292969 280.394531 107.003906 280.917969 107.6875 281.480469 C 108.371094 282.042969 109.027344 282.636719 109.652344 283.261719 C 110.277344 283.890625 110.871094 284.542969 111.433594 285.230469 C 111.996094 285.914062 112.523438 286.625 113.015625 287.359375 C 113.507812 288.097656 113.960938 288.855469 114.378906 289.636719 C 114.796875 290.417969 115.175781 291.214844 115.511719 292.035156 C 115.851562 292.851562 116.148438 293.683594 116.40625 294.53125 C 116.664062 295.378906 116.878906 296.238281 117.050781 297.105469 C 117.222656 297.972656 117.355469 298.847656 117.441406 299.730469 C 117.527344 300.613281 117.570312 301.496094 117.570312 302.378906 Z M 117.570312 302.378906 " fill-opacity="1" fill-rule="nonzero"/></g><path fill="#ffffff" d="M 85.019531 296.433594 C 85.019531 296.957031 85.003906 297.476562 84.96875 297.992188 C 84.9375 298.507812 84.886719 299.007812 84.820312 299.496094 C 84.753906 299.980469 84.671875 300.441406 84.574219 300.878906 C 84.476562 301.316406 84.367188 301.71875 84.246094 302.089844 C 84.121094 302.460938 83.988281 302.792969 83.84375 303.085938 C 83.699219 303.378906 83.546875 303.625 83.386719 303.824219 C 83.222656 304.027344 83.058594 304.179688 82.886719 304.28125 C 82.71875 304.382812 82.546875 304.433594 82.371094 304.433594 C 82.195312 304.433594 82.023438 304.382812 81.855469 304.28125 C 81.683594 304.179688 81.519531 304.027344 81.355469 303.824219 C 81.195312 303.625 81.042969 303.378906 80.898438 303.085938 C 80.753906 302.792969 80.621094 302.460938 80.496094 302.089844 C 80.375 301.71875 80.265625 301.316406 80.167969 300.878906 C 80.070312 300.441406 79.988281 299.980469 79.921875 299.496094 C 79.855469 299.007812 79.804688 298.507812 79.773438 297.992188 C 79.738281 297.476562 79.722656 296.957031 79.722656 296.433594 C 79.722656 295.90625 79.738281 295.386719 79.773438 294.871094 C 79.804688 294.355469 79.855469 293.855469 79.921875 293.371094 C 79.988281 292.882812 80.070312 292.421875 80.167969 291.988281 C 80.265625 291.550781 80.375 291.144531 80.496094 290.773438 C 80.621094 290.402344 80.753906 290.070312 80.898438 289.777344 C 81.042969 289.488281 81.195312 289.238281 81.355469 289.039062 C 81.519531 288.839844 81.683594 288.6875 81.855469 288.582031 C 82.023438 288.480469 82.195312 288.429688 82.371094 288.429688 C 82.546875 288.429688 82.71875 288.480469 82.886719 288.582031 C 83.058594 288.6875 83.222656 288.839844 83.386719 289.039062 C 83.546875 289.238281 83.699219 289.488281 83.84375 289.777344 C 83.988281 290.070312 84.121094 290.402344 84.246094 290.773438 C 84.367188 291.144531 84.476562 291.550781 84.574219 291.988281 C 84.671875 292.421875 84.753906 292.882812 84.820312 293.371094 C 84.886719 293.855469 84.9375 294.355469 84.96875 294.871094 C 85.003906 295.386719 85.019531 295.90625 85.019531 296.433594 Z M 85.019531 296.433594 " fill-opacity="1" fill-rule="nonzero"/><path fill="#ffffff" d="M 101.457031 296.433594 C 101.457031 296.957031 101.441406 297.476562 101.40625 297.992188 C 101.375 298.507812 101.324219 299.007812 101.257812 299.496094 C 101.191406 299.980469 101.109375 300.441406 101.011719 300.878906 C 100.914062 301.316406 100.804688 301.71875 100.683594 302.089844 C 100.558594 302.460938 100.425781 302.792969 100.28125 303.085938 C 100.136719 303.378906 99.984375 303.625 99.824219 303.824219 C 99.660156 304.027344 99.496094 304.179688 99.324219 304.28125 C 99.15625 304.382812 98.984375 304.433594 98.808594 304.433594 C 98.636719 304.433594 98.460938 304.382812 98.292969 304.28125 C 98.121094 304.179688 97.957031 304.027344 97.792969 303.824219 C 97.632812 303.625 97.480469 303.378906 97.335938 303.085938 C 97.191406 302.792969 97.058594 302.460938 96.933594 302.089844 C 96.8125 301.71875 96.703125 301.316406 96.605469 300.878906 C 96.507812 300.441406 96.425781 299.980469 96.359375 299.496094 C 96.292969 299.007812 96.242188 298.507812 96.210938 297.992188 C 96.175781 297.476562 96.160156 296.957031 96.160156 296.433594 C 96.160156 295.90625 96.175781 295.386719 96.210938 294.871094 C 96.242188 294.355469 96.292969 293.855469 96.359375 293.371094 C 96.425781 292.882812 96.507812 292.421875 96.605469 291.988281 C 96.703125 291.550781 96.8125 291.144531 96.933594 290.773438 C 97.058594 290.402344 97.191406 290.070312 97.335938 289.777344 C 97.480469 289.488281 97.632812 289.238281 97.792969 289.039062 C 97.957031 288.839844 98.121094 288.6875 98.292969 288.582031 C 98.460938 288.480469 98.636719 288.429688 98.808594 288.429688 C 98.984375 288.429688 99.15625 288.480469 99.324219 288.582031 C 99.496094 288.6875 99.660156 288.839844 99.824219 289.039062 C 99.984375 289.238281 100.136719 289.488281 100.28125 289.777344 C 100.425781 290.070312 100.558594 290.402344 100.683594 290.773438 C 100.804688 291.144531 100.914062 291.550781 101.011719 291.988281 C 101.109375 292.421875 101.191406 292.882812 101.257812 293.371094 C 101.324219 293.855469 101.375 294.355469 101.40625 294.871094 C 101.441406 295.386719 101.457031 295.90625 101.457031 296.433594 Z M 101.457031 296.433594 " fill-opacity="1" fill-rule="nonzero"/><path fill="#ffffff" d="M 109.375 306.878906 C 108.972656 306.332031 108.460938 305.921875 107.839844 305.648438 C 107.839844 305.640625 107.839844 305.632812 107.839844 305.625 L 107.78125 305.625 C 106.328125 305.011719 104.84375 305.421875 104.757812 305.445312 C 104.503906 305.519531 104.3125 305.675781 104.183594 305.910156 C 104.054688 306.140625 104.023438 306.386719 104.097656 306.644531 C 104.167969 306.898438 104.320312 307.09375 104.554688 307.226562 C 104.785156 307.355469 105.03125 307.386719 105.289062 307.320312 C 105.457031 307.277344 105.632812 307.25 105.808594 307.238281 C 104.996094 314.949219 98.457031 320.980469 90.535156 320.980469 C 82.613281 320.980469 76.074219 314.949219 75.265625 307.238281 C 75.441406 307.25 75.613281 307.277344 75.78125 307.320312 C 76.042969 307.390625 76.289062 307.363281 76.523438 307.230469 C 76.757812 307.101562 76.910156 306.90625 76.984375 306.648438 C 77.058594 306.386719 77.027344 306.140625 76.898438 305.90625 C 76.765625 305.671875 76.570312 305.519531 76.3125 305.445312 C 76.226562 305.421875 74.742188 305.011719 73.289062 305.625 L 73.234375 305.625 C 73.234375 305.632812 73.234375 305.640625 73.234375 305.648438 C 72.613281 305.921875 72.101562 306.332031 71.699219 306.878906 C 71.535156 307.09375 71.472656 307.335938 71.511719 307.601562 C 71.550781 307.867188 71.675781 308.082031 71.890625 308.242188 C 72.105469 308.402344 72.347656 308.464844 72.613281 308.425781 C 72.878906 308.390625 73.09375 308.261719 73.253906 308.046875 C 73.292969 307.992188 73.335938 307.941406 73.382812 307.894531 C 74.496094 316.367188 81.765625 322.925781 90.535156 322.925781 C 99.308594 322.925781 106.574219 316.367188 107.691406 307.894531 C 107.734375 307.941406 107.777344 307.992188 107.816406 308.046875 C 107.976562 308.261719 108.191406 308.390625 108.457031 308.425781 C 108.722656 308.464844 108.964844 308.402344 109.179688 308.242188 C 109.394531 308.082031 109.523438 307.867188 109.558594 307.601562 C 109.597656 307.335938 109.535156 307.09375 109.375 306.878906 Z M 109.375 306.878906 " fill-opacity="1" fill-rule="nonzero"/><g clip-path="url(#59d2031f6c)"><path fill="#38b6ff" d="M 295.054688 254.316406 C 295.054688 265.921875 285.644531 275.332031 274.039062 275.332031 C 262.429688 275.332031 253.019531 265.921875 253.019531 254.316406 C 253.019531 242.707031 262.429688 233.296875 274.039062 233.296875 C 285.644531 233.296875 295.054688 242.707031 295.054688 254.316406 " fill-opacity="1" fill-rule="nonzero"/></g><g clip-path="url(#f2292fdc95)"><path fill="#38b6ff" d="M 285.351562 236.605469 C 287.441406 239.875 288.660156 243.753906 288.660156 247.921875 C 288.660156 259.527344 279.25 268.9375 267.644531 268.9375 C 263.476562 268.9375 259.597656 267.71875 256.328125 265.628906 C 260.0625 271.460938 266.597656 275.332031 274.039062 275.332031 C 285.644531 275.332031 295.054688 265.921875 295.054688 254.316406 C 295.054688 246.875 291.183594 240.339844 285.351562 236.605469 " fill-opacity="1" fill-rule="nonzero"/></g><path fill="#38b6ff" d="M 269.574219 235.703125 C 262.835938 237.867188 256.371094 243.484375 255.859375 250.5625 C 255.65625 253.363281 256.605469 255.652344 259.988281 255.941406 C 263.347656 256.226562 266.355469 254.195312 269.03125 251.964844 C 271.507812 249.894531 273.460938 247.640625 276.210938 245.867188 C 278.84375 244.167969 282.617188 241.664062 281.285156 237.953125 C 279.933594 234.1875 272.914062 234.632812 269.574219 235.703125 " fill-opacity="1" fill-rule="nonzero"/><path fill="#ffffff" d="M 284.121094 249.371094 C 284.121094 252.113281 282.949219 254.335938 281.507812 254.335938 C 280.0625 254.335938 278.890625 252.113281 278.890625 249.371094 C 278.890625 246.628906 280.0625 244.40625 281.507812 244.40625 C 282.949219 244.40625 284.121094 246.628906 284.121094 249.371094 " fill-opacity="1" fill-rule="nonzero"/><path fill="#ffffff" d="M 269.183594 249.371094 C 269.183594 252.113281 268.015625 254.335938 266.570312 254.335938 C 265.125 254.335938 263.953125 252.113281 263.953125 249.371094 C 263.953125 246.628906 265.125 244.40625 266.570312 244.40625 C 268.015625 244.40625 269.183594 246.628906 269.183594 249.371094 " fill-opacity="1" fill-rule="nonzero"/><path fill="#ffffff" d="M 284.3125 265.9375 C 284.3125 265.9375 284.261719 265.847656 284.164062 265.675781 C 284.066406 265.507812 283.933594 265.246094 283.730469 264.953125 C 283.683594 264.878906 283.628906 264.800781 283.578125 264.714844 C 283.523438 264.632812 283.46875 264.550781 283.398438 264.464844 C 283.265625 264.296875 283.132812 264.109375 282.980469 263.917969 C 282.8125 263.734375 282.648438 263.53125 282.464844 263.332031 C 282.265625 263.144531 282.074219 262.929688 281.851562 262.734375 C 281.621094 262.542969 281.402344 262.324219 281.140625 262.140625 C 281.011719 262.046875 280.882812 261.949219 280.753906 261.847656 C 280.617188 261.761719 280.476562 261.671875 280.335938 261.578125 C 280.265625 261.53125 280.195312 261.484375 280.125 261.441406 C 280.050781 261.394531 279.976562 261.355469 279.898438 261.3125 C 279.75 261.226562 279.597656 261.144531 279.445312 261.058594 C 279.289062 260.980469 279.128906 260.90625 278.964844 260.828125 C 278.886719 260.789062 278.804688 260.75 278.722656 260.710938 C 278.640625 260.679688 278.554688 260.644531 278.46875 260.613281 C 277.800781 260.324219 277.074219 260.132812 276.335938 259.972656 C 276.148438 259.9375 275.960938 259.90625 275.769531 259.875 C 275.679688 259.855469 275.582031 259.847656 275.488281 259.839844 L 275.199219 259.808594 C 274.820312 259.753906 274.433594 259.761719 274.046875 259.746094 L 274.011719 259.742188 C 273.980469 259.742188 274.046875 259.742188 274.035156 259.742188 L 274.007812 259.742188 L 273.929688 259.746094 L 273.773438 259.75 L 273.464844 259.761719 L 273.152344 259.773438 L 272.878906 259.804688 C 272.695312 259.828125 272.515625 259.84375 272.332031 259.867188 C 272.144531 259.902344 271.957031 259.933594 271.773438 259.96875 C 271.582031 259.996094 271.402344 260.054688 271.222656 260.097656 C 271.039062 260.148438 270.855469 260.179688 270.679688 260.246094 C 270.503906 260.300781 270.328125 260.359375 270.152344 260.417969 C 269.980469 260.480469 269.8125 260.554688 269.644531 260.621094 C 269.558594 260.652344 269.476562 260.6875 269.390625 260.722656 C 269.308594 260.757812 269.230469 260.800781 269.148438 260.839844 C 268.988281 260.917969 268.828125 260.996094 268.671875 261.070312 C 268.515625 261.15625 268.367188 261.246094 268.21875 261.328125 C 268.140625 261.371094 268.066406 261.414062 267.996094 261.457031 C 267.921875 261.503906 267.851562 261.550781 267.78125 261.597656 C 267.640625 261.691406 267.503906 261.78125 267.367188 261.871094 C 267.234375 261.972656 267.105469 262.070312 266.980469 262.167969 C 266.714844 262.351562 266.496094 262.566406 266.265625 262.757812 C 266.148438 262.851562 266.050781 262.957031 265.949219 263.058594 C 265.847656 263.160156 265.746094 263.257812 265.648438 263.355469 C 265.460938 263.554688 265.296875 263.753906 265.128906 263.9375 C 264.824219 264.320312 264.550781 264.660156 264.359375 264.964844 C 264.152344 265.261719 264.015625 265.511719 263.917969 265.679688 C 263.816406 265.847656 263.761719 265.9375 263.761719 265.9375 C 263.761719 265.9375 263.785156 265.835938 263.828125 265.644531 C 263.878906 265.457031 263.929688 265.164062 264.066406 264.820312 C 264.097656 264.734375 264.132812 264.640625 264.167969 264.542969 C 264.183594 264.496094 264.203125 264.445312 264.21875 264.394531 C 264.242188 264.34375 264.265625 264.296875 264.285156 264.242188 C 264.378906 264.039062 264.480469 263.816406 264.597656 263.582031 C 264.730469 263.355469 264.867188 263.113281 265.023438 262.863281 C 265.109375 262.742188 265.195312 262.617188 265.28125 262.492188 C 265.375 262.363281 265.460938 262.230469 265.570312 262.109375 C 265.777344 261.859375 265.988281 261.589844 266.242188 261.34375 C 266.363281 261.21875 266.492188 261.089844 266.625 260.964844 C 266.761719 260.84375 266.902344 260.722656 267.042969 260.601562 C 267.117188 260.539062 267.1875 260.476562 267.261719 260.414062 C 267.339844 260.359375 267.417969 260.304688 267.496094 260.246094 C 267.652344 260.132812 267.8125 260.019531 267.972656 259.902344 C 268.140625 259.796875 268.3125 259.691406 268.488281 259.589844 C 268.574219 259.539062 268.660156 259.484375 268.75 259.433594 C 268.84375 259.386719 268.933594 259.34375 269.027344 259.296875 C 269.214844 259.203125 269.398438 259.101562 269.589844 259.019531 C 269.789062 258.941406 269.984375 258.863281 270.183594 258.785156 C 270.378906 258.699219 270.589844 258.648438 270.796875 258.578125 C 271.003906 258.519531 271.210938 258.449219 271.425781 258.410156 C 271.640625 258.363281 271.851562 258.316406 272.070312 258.269531 C 272.289062 258.226562 272.519531 258.207031 272.746094 258.175781 L 273.089844 258.136719 L 273.707031 258.109375 L 273.941406 258.097656 L 274.011719 258.09375 L 274.054688 258.097656 C 274.941406 258.117188 275.828125 258.203125 276.675781 258.414062 C 276.785156 258.433594 276.890625 258.460938 276.992188 258.492188 L 277.304688 258.585938 C 277.511719 258.648438 277.71875 258.703125 277.917969 258.785156 C 278.117188 258.863281 278.3125 258.941406 278.507812 259.015625 C 278.703125 259.101562 278.886719 259.199219 279.074219 259.289062 C 279.167969 259.332031 279.261719 259.378906 279.351562 259.421875 C 279.441406 259.476562 279.527344 259.527344 279.617188 259.578125 C 279.792969 259.679688 279.964844 259.78125 280.132812 259.886719 C 280.296875 260.003906 280.457031 260.117188 280.613281 260.230469 C 280.691406 260.285156 280.773438 260.339844 280.847656 260.398438 C 280.921875 260.460938 280.996094 260.519531 281.066406 260.582031 C 281.210938 260.703125 281.351562 260.824219 281.492188 260.941406 C 281.621094 261.070312 281.746094 261.199219 281.871094 261.324219 C 282.128906 261.566406 282.335938 261.839844 282.546875 262.085938 C 282.65625 262.210938 282.742188 262.347656 282.832031 262.472656 C 282.921875 262.597656 283.007812 262.722656 283.089844 262.84375 C 283.246094 263.097656 283.382812 263.34375 283.511719 263.570312 C 283.625 263.804688 283.726562 264.03125 283.816406 264.234375 C 283.863281 264.335938 283.898438 264.441406 283.933594 264.539062 C 283.964844 264.636719 283.996094 264.730469 284.027344 264.820312 C 284.164062 265.167969 284.203125 265.453125 284.25 265.644531 C 284.292969 265.835938 284.3125 265.9375 284.3125 265.9375 " fill-opacity="1" fill-rule="nonzero"/><g clip-path="url(#f7e64e7412)"><path fill="#38b6ff" d="M 213.476562 219.757812 C 213.476562 231.425781 203.761719 240.890625 191.792969 240.890625 C 179.800781 240.890625 170.089844 231.425781 170.089844 219.757812 C 170.089844 209.21875 178.847656 198.605469 191.792969 198.605469 C 203.761719 198.605469 213.476562 208.066406 213.476562 219.757812 Z M 213.476562 219.757812 " fill-opacity="1" fill-rule="nonzero"/></g><path fill="#ffffff" d="M 185.042969 218.382812 C 185.125 220.152344 184.21875 221.640625 183 221.714844 C 181.726562 221.796875 180.636719 220.421875 180.535156 218.648438 C 180.441406 216.859375 181.351562 215.382812 182.59375 215.300781 C 183.824219 215.230469 184.914062 216.59375 185.042969 218.382812 Z M 185.042969 218.382812 " fill-opacity="1" fill-rule="evenodd"/><path fill="#ffffff" d="M 202.503906 218.496094 C 202.601562 220.273438 201.664062 221.785156 200.449219 221.820312 C 199.195312 221.914062 198.097656 220.519531 198 218.757812 C 197.902344 216.972656 198.8125 215.507812 200.070312 215.417969 C 201.285156 215.339844 202.390625 216.71875 202.503906 218.496094 Z M 202.503906 218.496094 " fill-opacity="1" fill-rule="evenodd"/><path fill="#ffffff" d="M 187.53125 217.820312 C 187.488281 217.820312 187.460938 217.816406 187.417969 217.808594 C 180.121094 216.886719 177.535156 214.34375 177.421875 214.238281 C 177.085938 213.894531 177.09375 213.351562 177.4375 213.015625 C 177.773438 212.683594 178.308594 212.683594 178.652344 213.019531 C 178.722656 213.097656 181.097656 215.273438 187.632812 216.105469 C 188.101562 216.160156 188.4375 216.59375 188.382812 217.066406 C 188.328125 217.5 187.949219 217.820312 187.53125 217.820312 Z M 187.53125 217.820312 " fill-opacity="1" fill-rule="nonzero"/><path fill="#ffffff" d="M 194.980469 217.820312 C 194.546875 217.820312 194.183594 217.5 194.128906 217.066406 C 194.074219 216.59375 194.402344 216.160156 194.871094 216.105469 C 201.496094 215.265625 203.859375 213.042969 203.871094 213.015625 C 204.214844 212.6875 204.753906 212.691406 205.089844 213.027344 C 205.425781 213.363281 205.425781 213.902344 205.089844 214.238281 C 204.984375 214.347656 202.375 216.886719 195.09375 217.808594 C 195.050781 217.816406 195.015625 217.820312 194.980469 217.820312 Z M 194.980469 217.820312 " fill-opacity="1" fill-rule="nonzero"/><path fill="#ffffff" d="M 186.804688 227.0625 C 186.425781 227.0625 186.117188 226.757812 186.117188 226.378906 C 186.101562 225.589844 186.441406 224.828125 187.082031 224.179688 C 188.132812 223.128906 189.871094 222.523438 191.75 222.519531 C 193.554688 222.519531 195.246094 223.117188 196.28125 224.132812 C 196.925781 224.769531 197.273438 225.527344 197.273438 226.316406 C 197.28125 226.695312 196.980469 226.996094 196.59375 227.003906 L 196.589844 227.003906 C 196.210938 227.003906 195.902344 226.695312 195.902344 226.320312 C 195.902344 225.796875 195.582031 225.371094 195.316406 225.113281 C 194.546875 224.355469 193.175781 223.890625 191.738281 223.890625 C 191.710938 223.890625 191.683594 223.890625 191.667969 223.890625 C 190.199219 223.898438 188.816406 224.378906 188.0625 225.144531 C 187.796875 225.414062 187.488281 225.839844 187.488281 226.371094 C 187.488281 226.75 187.179688 227.058594 186.804688 227.0625 Z M 186.804688 227.0625 " fill-opacity="1" fill-rule="nonzero"/><g clip-path="url(#6c8436ee27)"><path fill="#38b6ff" d="M 153.539062 121.527344 C 153.539062 122.40625 153.453125 123.277344 153.28125 124.136719 C 153.109375 124.996094 152.855469 125.832031 152.519531 126.644531 C 152.183594 127.453125 151.773438 128.222656 151.285156 128.953125 C 150.796875 129.683594 150.242188 130.359375 149.625 130.976562 C 149.003906 131.597656 148.328125 132.152344 147.597656 132.640625 C 146.871094 133.128906 146.097656 133.539062 145.289062 133.875 C 144.476562 134.210938 143.640625 134.464844 142.78125 134.636719 C 141.921875 134.804688 141.050781 134.890625 140.175781 134.890625 C 139.296875 134.890625 138.429688 134.804688 137.566406 134.636719 C 136.707031 134.464844 135.871094 134.210938 135.0625 133.875 C 134.25 133.539062 133.480469 133.128906 132.75 132.640625 C 132.023438 132.152344 131.347656 131.597656 130.726562 130.976562 C 130.105469 130.359375 129.550781 129.683594 129.0625 128.953125 C 128.578125 128.222656 128.164062 127.453125 127.828125 126.644531 C 127.492188 125.832031 127.242188 124.996094 127.070312 124.136719 C 126.898438 123.277344 126.8125 122.40625 126.8125 121.527344 C 126.8125 120.652344 126.898438 119.78125 127.070312 118.921875 C 127.242188 118.0625 127.492188 117.226562 127.828125 116.414062 C 128.164062 115.605469 128.578125 114.835938 129.0625 114.105469 C 129.550781 113.375 130.105469 112.699219 130.726562 112.082031 C 131.347656 111.460938 132.023438 110.90625 132.75 110.417969 C 133.480469 109.929688 134.25 109.519531 135.0625 109.183594 C 135.871094 108.847656 136.707031 108.59375 137.566406 108.421875 C 138.429688 108.253906 139.296875 108.167969 140.175781 108.167969 C 141.050781 108.167969 141.921875 108.253906 142.78125 108.421875 C 143.640625 108.59375 144.476562 108.847656 145.289062 109.183594 C 146.097656 109.519531 146.871094 109.929688 147.597656 110.417969 C 148.328125 110.90625 149.003906 111.460938 149.625 112.082031 C 150.242188 112.699219 150.796875 113.375 151.285156 114.105469 C 151.773438 114.835938 152.183594 115.605469 152.519531 116.414062 C 152.855469 117.226562 153.109375 118.0625 153.28125 118.921875 C 153.453125 119.78125 153.539062 120.652344 153.539062 121.527344 Z M 153.539062 121.527344 " fill-opacity="1" fill-rule="nonzero"/></g><path fill="#ffffff" d="M 137.136719 120.472656 C 137.136719 120.824219 137.089844 121.160156 136.996094 121.480469 C 136.902344 121.804688 136.769531 122.085938 136.597656 122.335938 C 136.421875 122.582031 136.222656 122.769531 135.996094 122.90625 C 135.769531 123.039062 135.53125 123.105469 135.285156 123.105469 C 135.039062 123.105469 134.804688 123.039062 134.578125 122.90625 C 134.351562 122.769531 134.152344 122.582031 133.976562 122.335938 C 133.804688 122.085938 133.667969 121.804688 133.574219 121.480469 C 133.480469 121.160156 133.433594 120.824219 133.433594 120.472656 C 133.433594 120.125 133.480469 119.789062 133.574219 119.46875 C 133.667969 119.144531 133.804688 118.859375 133.976562 118.613281 C 134.152344 118.367188 134.351562 118.175781 134.578125 118.042969 C 134.804688 117.910156 135.039062 117.84375 135.285156 117.84375 C 135.53125 117.84375 135.769531 117.910156 135.996094 118.042969 C 136.222656 118.175781 136.421875 118.367188 136.597656 118.613281 C 136.769531 118.859375 136.902344 119.144531 136.996094 119.46875 C 137.089844 119.789062 137.136719 120.125 137.136719 120.472656 Z M 137.136719 120.472656 " fill-opacity="1" fill-rule="nonzero"/><path fill="#ffffff" d="M 146.792969 120.472656 C 146.792969 120.824219 146.746094 121.160156 146.652344 121.480469 C 146.554688 121.804688 146.421875 122.085938 146.25 122.335938 C 146.074219 122.582031 145.875 122.769531 145.648438 122.90625 C 145.421875 123.039062 145.183594 123.105469 144.941406 123.105469 C 144.695312 123.105469 144.457031 123.039062 144.230469 122.90625 C 144.003906 122.769531 143.804688 122.582031 143.628906 122.335938 C 143.457031 122.085938 143.324219 121.804688 143.230469 121.480469 C 143.136719 121.160156 143.085938 120.824219 143.085938 120.472656 C 143.085938 120.125 143.136719 119.789062 143.230469 119.46875 C 143.324219 119.144531 143.457031 118.859375 143.628906 118.613281 C 143.804688 118.367188 144.003906 118.175781 144.230469 118.042969 C 144.457031 117.910156 144.695312 117.84375 144.941406 117.84375 C 145.183594 117.84375 145.421875 117.910156 145.648438 118.042969 C 145.875 118.175781 146.074219 118.367188 146.25 118.613281 C 146.421875 118.859375 146.554688 119.144531 146.652344 119.46875 C 146.746094 119.789062 146.792969 120.125 146.792969 120.472656 Z M 146.792969 120.472656 " fill-opacity="1" fill-rule="nonzero"/><path fill="#ffffff" d="M 145.417969 127.578125 L 134.929688 127.578125 C 134.507812 127.578125 134.167969 127.234375 134.167969 126.8125 C 134.167969 126.390625 134.507812 126.050781 134.929688 126.050781 L 145.417969 126.050781 C 145.839844 126.050781 146.183594 126.390625 146.183594 126.8125 C 146.183594 127.234375 145.839844 127.578125 145.417969 127.578125 Z M 145.417969 127.578125 " fill-opacity="1" fill-rule="nonzero"/></svg>