<svg xmlns="http://www.w3.org/2000/svg" xmlns:xlink="http://www.w3.org/1999/xlink" width="500" zoomAndPan="magnify" viewBox="0 0 375 374.999991" height="500" preserveAspectRatio="xMidYMid meet" version="1.0"><defs><g/><clipPath id="cc7de6c347"><path d="M 45 137 L 89.578125 137 L 89.578125 200 L 45 200 Z M 45 137 " clip-rule="nonzero"/></clipPath><clipPath id="fe051a9880"><path d="M 14 156 L 43 156 L 43 216.9375 L 14 216.9375 Z M 14 156 " clip-rule="nonzero"/></clipPath><clipPath id="07c748a16c"><path d="M 32 129.191406 L 52 129.191406 L 52 160 L 32 160 Z M 32 129.191406 " clip-rule="nonzero"/></clipPath><clipPath id="08b9a1cabc"><path d="M 15.710938 198.316406 L 31.210938 198.316406 L 31.210938 213.816406 L 15.710938 213.816406 Z M 15.710938 198.316406 " clip-rule="nonzero"/></clipPath><clipPath id="ad063b62f0"><path d="M 70.1875 186.230469 L 82.179688 186.230469 L 82.179688 198.222656 L 70.1875 198.222656 Z M 70.1875 186.230469 " clip-rule="nonzero"/></clipPath><clipPath id="b0ba8e1d1d"><path d="M 71 187 L 82.179688 187 L 82.179688 198.222656 L 71 198.222656 Z M 71 187 " clip-rule="nonzero"/></clipPath><clipPath id="f070d60af0"><path d="M 70.1875 186.230469 L 79 186.230469 L 79 193 L 70.1875 193 Z M 70.1875 186.230469 " clip-rule="nonzero"/></clipPath><clipPath id="7194cae786"><path d="M 46.347656 176.257812 L 58.925781 176.257812 L 58.925781 188.542969 L 46.347656 188.542969 Z M 46.347656 176.257812 " clip-rule="nonzero"/></clipPath><clipPath id="d36e06ec44"><path d="M 33.910156 150.261719 L 41.515625 150.261719 L 41.515625 157.867188 L 33.910156 157.867188 Z M 33.910156 150.261719 " clip-rule="nonzero"/></clipPath><clipPath id="d3150eb6cf"><path d="M 225.601562 139.578125 L 364 139.578125 L 364 198.660156 L 225.601562 198.660156 Z M 225.601562 139.578125 " clip-rule="nonzero"/></clipPath><clipPath id="adda3ab17e"><path d="M 235.351562 139.578125 L 354.214844 139.578125 C 359.601562 139.578125 363.964844 143.941406 363.964844 149.328125 L 363.964844 188.910156 C 363.964844 194.296875 359.601562 198.660156 354.214844 198.660156 L 235.351562 198.660156 C 229.964844 198.660156 225.601562 194.296875 225.601562 188.910156 L 225.601562 149.328125 C 225.601562 143.941406 229.964844 139.578125 235.351562 139.578125 Z M 235.351562 139.578125 " clip-rule="nonzero"/></clipPath></defs><g clip-path="url(#cc7de6c347)"><path fill="#38b6ff" d="M 60.714844 137.660156 L 56.316406 174.78125 C 55.847656 174.707031 55.363281 174.671875 54.863281 174.683594 C 53.875 174.707031 52.871094 174.902344 51.875 175.261719 C 47.644531 176.789062 44.878906 180.792969 45.585938 184.375 C 46.121094 187.109375 48.605469 188.945312 51.769531 188.945312 C 51.835938 188.945312 51.902344 188.945312 51.964844 188.945312 C 52.953125 188.921875 53.960938 188.726562 54.957031 188.363281 C 58.367188 187.132812 60.9375 184.226562 61.355469 181.109375 L 64.824219 151.789062 L 82.585938 161.234375 L 79.769531 185.058594 C 79.3125 184.988281 78.828125 184.957031 78.359375 184.96875 C 77.375 184.992188 76.371094 185.183594 75.375 185.542969 C 71.144531 187.070312 68.382812 191.074219 69.082031 194.660156 C 69.621094 197.394531 72.105469 199.230469 75.265625 199.230469 C 75.332031 199.230469 75.398438 199.230469 75.464844 199.226562 C 76.453125 199.203125 77.457031 199.007812 78.457031 198.648438 C 81.863281 197.417969 84.414062 194.527344 84.808594 191.441406 L 89.445312 152.273438 L 60.714844 137.660156 " fill-opacity="1" fill-rule="nonzero"/></g><g clip-path="url(#fe051a9880)"><path fill="#38b6ff" d="M 35.660156 167.863281 C 35.058594 167.386719 34.410156 166.933594 33.667969 166.464844 C 33.332031 166.257812 32.996094 166.054688 32.664062 165.871094 C 32.28125 165.652344 31.929688 165.472656 31.605469 165.308594 C 31.195312 165.105469 30.796875 164.910156 30.402344 164.71875 C 29.570312 164.316406 28.785156 163.941406 28.105469 163.527344 C 27.207031 162.992188 26.550781 162.40625 26.152344 161.777344 C 26.039062 161.601562 25.800781 161.105469 25.605469 160.707031 L 25.289062 160.0625 C 25 159.464844 24.667969 158.792969 24.003906 157.90625 C 23.339844 157.027344 22.339844 156.523438 21.261719 156.523438 C 20.835938 156.523438 20.417969 156.601562 20.023438 156.753906 C 19.867188 156.808594 19.714844 156.878906 19.5625 156.960938 C 18.003906 157.8125 17.152344 159.667969 17.496094 161.480469 L 25.492188 196.644531 C 24.671875 196.738281 23.84375 196.945312 23.019531 197.261719 C 21.800781 197.726562 20.632812 198.414062 19.546875 199.308594 C 14.933594 203.097656 13.230469 209.292969 15.671875 213.414062 C 16.964844 215.59375 19.242188 216.839844 21.917969 216.839844 C 23.070312 216.839844 24.25 216.613281 25.421875 216.164062 C 26.644531 215.699219 27.8125 215.007812 28.902344 214.113281 C 32.621094 211.050781 34.539062 206.3125 33.671875 202.296875 L 26.621094 171.285156 C 26.992188 171.421875 27.355469 171.546875 27.71875 171.671875 C 28.097656 171.800781 28.46875 171.929688 28.800781 172.050781 L 29.671875 172.386719 C 30.007812 172.53125 30.261719 172.644531 30.488281 172.753906 C 31.019531 173.007812 31.535156 173.285156 32.035156 173.589844 C 34.191406 174.890625 35.726562 176.566406 36.601562 178.589844 C 37.550781 180.707031 37.785156 183.453125 37.261719 186.328125 C 37.066406 187.429688 37.695312 188.496094 38.722656 188.8125 C 39.164062 188.949219 39.636719 188.933594 40.085938 188.765625 C 40.734375 188.515625 41.222656 187.980469 41.421875 187.300781 C 42.566406 183.5 42.640625 179.613281 41.628906 176.363281 C 40.632812 173.113281 38.574219 170.175781 35.660156 167.863281 " fill-opacity="1" fill-rule="nonzero"/></g><g clip-path="url(#07c748a16c)"><path fill="#38b6ff" d="M 50.285156 137.339844 C 50.070312 137.007812 49.828125 136.679688 49.546875 136.328125 C 49.417969 136.171875 49.285156 136.015625 49.15625 135.871094 C 49.003906 135.703125 48.867188 135.554688 48.734375 135.421875 C 48.570312 135.253906 48.40625 135.09375 48.246094 134.933594 C 47.90625 134.601562 47.585938 134.285156 47.324219 133.972656 C 46.980469 133.5625 46.757812 133.167969 46.667969 132.792969 C 46.640625 132.6875 46.605469 132.410156 46.578125 132.183594 L 46.53125 131.816406 C 46.488281 131.476562 46.4375 131.09375 46.261719 130.550781 C 46.085938 130.011719 45.683594 129.601562 45.15625 129.421875 C 44.949219 129.351562 44.734375 129.320312 44.515625 129.328125 C 44.429688 129.328125 44.347656 129.335938 44.257812 129.355469 C 43.355469 129.507812 42.632812 130.269531 42.5 131.210938 L 40.546875 149.667969 C 40.128906 149.574219 39.691406 149.539062 39.238281 149.554688 C 38.566406 149.578125 37.882812 149.722656 37.207031 149.976562 C 34.328125 151.054688 32.46875 153.789062 32.972656 156.199219 C 33.238281 157.476562 34.140625 158.464844 35.445312 158.910156 C 36.003906 159.097656 36.617188 159.1875 37.261719 159.164062 C 37.9375 159.136719 38.621094 158.996094 39.300781 158.742188 C 41.621094 157.867188 43.34375 155.878906 43.589844 153.777344 L 45.3125 137.503906 C 45.472656 137.628906 45.628906 137.753906 45.78125 137.875 C 45.945312 138 46.105469 138.125 46.246094 138.238281 L 46.613281 138.546875 C 46.753906 138.671875 46.859375 138.769531 46.953125 138.859375 C 47.167969 139.070312 47.375 139.292969 47.566406 139.523438 C 48.398438 140.519531 48.867188 141.589844 48.957031 142.722656 C 49.070312 143.910156 48.726562 145.285156 47.992188 146.597656 C 47.714844 147.101562 47.84375 147.726562 48.289062 148.050781 C 48.484375 148.191406 48.71875 148.265625 48.964844 148.257812 C 49.320312 148.242188 49.648438 148.0625 49.859375 147.765625 C 51.046875 146.105469 51.726562 144.222656 51.777344 142.472656 C 51.832031 140.722656 51.320312 138.953125 50.285156 137.339844 " fill-opacity="1" fill-rule="nonzero"/></g><g clip-path="url(#08b9a1cabc)"><path fill="#38b6ff" d="M 31.253906 206.089844 C 31.253906 206.597656 31.203125 207.105469 31.105469 207.605469 C 31.003906 208.105469 30.855469 208.589844 30.660156 209.0625 C 30.464844 209.535156 30.226562 209.980469 29.941406 210.40625 C 29.660156 210.828125 29.335938 211.222656 28.976562 211.582031 C 28.617188 211.945312 28.222656 212.265625 27.800781 212.550781 C 27.375 212.832031 26.925781 213.074219 26.457031 213.269531 C 25.984375 213.464844 25.5 213.609375 24.996094 213.710938 C 24.496094 213.808594 23.992188 213.859375 23.480469 213.859375 C 22.972656 213.859375 22.464844 213.808594 21.964844 213.710938 C 21.464844 213.609375 20.980469 213.464844 20.507812 213.269531 C 20.035156 213.074219 19.589844 212.832031 19.164062 212.550781 C 18.738281 212.265625 18.347656 211.945312 17.984375 211.582031 C 17.625 211.222656 17.304688 210.828125 17.019531 210.40625 C 16.734375 209.980469 16.496094 209.535156 16.300781 209.0625 C 16.105469 208.589844 15.957031 208.105469 15.859375 207.605469 C 15.761719 207.105469 15.710938 206.597656 15.710938 206.089844 C 15.710938 205.578125 15.761719 205.074219 15.859375 204.570312 C 15.957031 204.070312 16.105469 203.585938 16.300781 203.113281 C 16.496094 202.644531 16.734375 202.195312 17.019531 201.769531 C 17.304688 201.347656 17.625 200.953125 17.984375 200.59375 C 18.347656 200.230469 18.738281 199.910156 19.164062 199.625 C 19.589844 199.34375 20.035156 199.101562 20.507812 198.90625 C 20.980469 198.714844 21.464844 198.566406 21.964844 198.464844 C 22.464844 198.367188 22.972656 198.316406 23.480469 198.316406 C 23.992188 198.316406 24.496094 198.367188 24.996094 198.464844 C 25.5 198.566406 25.984375 198.714844 26.457031 198.90625 C 26.925781 199.101562 27.375 199.34375 27.800781 199.625 C 28.222656 199.910156 28.617188 200.230469 28.976562 200.59375 C 29.335938 200.953125 29.660156 201.347656 29.941406 201.769531 C 30.226562 202.195312 30.464844 202.644531 30.660156 203.113281 C 30.855469 203.585938 31.003906 204.070312 31.105469 204.570312 C 31.203125 205.074219 31.253906 205.578125 31.253906 206.089844 Z M 31.253906 206.089844 " fill-opacity="1" fill-rule="nonzero"/></g><path fill="#ffffff" d="M 21.894531 204.378906 C 21.894531 204.683594 21.875 204.976562 21.839844 205.257812 C 21.800781 205.539062 21.746094 205.789062 21.671875 206.003906 C 21.601562 206.21875 21.519531 206.386719 21.425781 206.503906 C 21.332031 206.621094 21.234375 206.679688 21.132812 206.679688 C 21.035156 206.679688 20.9375 206.621094 20.84375 206.503906 C 20.75 206.386719 20.667969 206.21875 20.597656 206.003906 C 20.523438 205.789062 20.46875 205.539062 20.429688 205.257812 C 20.390625 204.976562 20.371094 204.683594 20.371094 204.378906 C 20.371094 204.074219 20.390625 203.78125 20.429688 203.496094 C 20.46875 203.214844 20.523438 202.96875 20.597656 202.75 C 20.667969 202.535156 20.75 202.371094 20.84375 202.253906 C 20.9375 202.136719 21.035156 202.078125 21.132812 202.078125 C 21.234375 202.078125 21.332031 202.136719 21.425781 202.253906 C 21.519531 202.371094 21.601562 202.535156 21.671875 202.75 C 21.746094 202.96875 21.800781 203.214844 21.839844 203.496094 C 21.875 203.78125 21.894531 204.074219 21.894531 204.378906 Z M 21.894531 204.378906 " fill-opacity="1" fill-rule="nonzero"/><path fill="#ffffff" d="M 26.621094 204.378906 C 26.621094 204.683594 26.601562 204.976562 26.5625 205.257812 C 26.523438 205.539062 26.46875 205.789062 26.398438 206.003906 C 26.328125 206.21875 26.246094 206.386719 26.152344 206.503906 C 26.058594 206.621094 25.960938 206.679688 25.859375 206.679688 C 25.757812 206.679688 25.660156 206.621094 25.566406 206.503906 C 25.476562 206.386719 25.390625 206.21875 25.320312 206.003906 C 25.25 205.789062 25.195312 205.539062 25.15625 205.257812 C 25.117188 204.976562 25.097656 204.683594 25.097656 204.378906 C 25.097656 204.074219 25.117188 203.78125 25.15625 203.496094 C 25.195312 203.214844 25.25 202.96875 25.320312 202.75 C 25.390625 202.535156 25.476562 202.371094 25.566406 202.253906 C 25.660156 202.136719 25.757812 202.078125 25.859375 202.078125 C 25.960938 202.078125 26.058594 202.136719 26.152344 202.253906 C 26.246094 202.371094 26.328125 202.535156 26.398438 202.75 C 26.46875 202.96875 26.523438 203.214844 26.5625 203.496094 C 26.601562 203.78125 26.621094 204.074219 26.621094 204.378906 Z M 26.621094 204.378906 " fill-opacity="1" fill-rule="nonzero"/><path fill="#ffffff" d="M 28.898438 207.382812 C 28.78125 207.222656 28.632812 207.105469 28.457031 207.027344 C 28.457031 207.027344 28.457031 207.023438 28.457031 207.019531 L 28.4375 207.019531 C 28.023438 206.84375 27.59375 206.960938 27.570312 206.96875 C 27.496094 206.992188 27.441406 207.035156 27.402344 207.101562 C 27.367188 207.167969 27.359375 207.238281 27.378906 207.3125 C 27.402344 207.386719 27.445312 207.441406 27.511719 207.480469 C 27.578125 207.519531 27.648438 207.527344 27.722656 207.507812 C 27.769531 207.496094 27.820312 207.488281 27.871094 207.484375 C 27.636719 209.703125 25.757812 211.433594 23.480469 211.433594 C 21.203125 211.433594 19.324219 209.703125 19.089844 207.484375 C 19.140625 207.488281 19.191406 207.496094 19.242188 207.507812 C 19.316406 207.527344 19.386719 207.519531 19.453125 207.484375 C 19.519531 207.445312 19.566406 207.390625 19.585938 207.316406 C 19.605469 207.238281 19.597656 207.167969 19.5625 207.101562 C 19.523438 207.035156 19.46875 206.992188 19.394531 206.96875 C 19.367188 206.960938 18.941406 206.84375 18.523438 207.019531 L 18.507812 207.019531 C 18.507812 207.023438 18.507812 207.027344 18.507812 207.027344 C 18.328125 207.105469 18.183594 207.222656 18.066406 207.382812 C 18.019531 207.441406 18.003906 207.511719 18.011719 207.589844 C 18.023438 207.664062 18.058594 207.726562 18.121094 207.773438 C 18.183594 207.820312 18.253906 207.835938 18.328125 207.828125 C 18.40625 207.816406 18.46875 207.777344 18.515625 207.71875 C 18.527344 207.703125 18.539062 207.6875 18.550781 207.671875 C 18.871094 210.109375 20.960938 211.996094 23.480469 211.996094 C 26.003906 211.996094 28.089844 210.109375 28.414062 207.671875 C 28.425781 207.6875 28.4375 207.703125 28.449219 207.71875 C 28.496094 207.777344 28.558594 207.816406 28.632812 207.828125 C 28.710938 207.835938 28.777344 207.820312 28.839844 207.773438 C 28.902344 207.726562 28.9375 207.664062 28.949219 207.589844 C 28.960938 207.511719 28.941406 207.441406 28.898438 207.382812 Z M 28.898438 207.382812 " fill-opacity="1" fill-rule="nonzero"/><g clip-path="url(#ad063b62f0)"><path fill="#38b6ff" d="M 82.269531 192.273438 C 82.269531 195.609375 79.566406 198.3125 76.230469 198.3125 C 72.894531 198.3125 70.1875 195.609375 70.1875 192.273438 C 70.1875 188.933594 72.894531 186.230469 76.230469 186.230469 C 79.566406 186.230469 82.269531 188.933594 82.269531 192.273438 " fill-opacity="1" fill-rule="nonzero"/></g><g clip-path="url(#b0ba8e1d1d)"><path fill="#38b6ff" d="M 79.480469 187.179688 C 80.082031 188.121094 80.433594 189.234375 80.433594 190.433594 C 80.433594 193.769531 77.726562 196.476562 74.390625 196.476562 C 73.195312 196.476562 72.078125 196.125 71.140625 195.523438 C 72.214844 197.199219 74.089844 198.3125 76.230469 198.3125 C 79.566406 198.3125 82.269531 195.609375 82.269531 192.273438 C 82.269531 190.132812 81.160156 188.253906 79.480469 187.179688 " fill-opacity="1" fill-rule="nonzero"/></g><g clip-path="url(#f070d60af0)"><path fill="#38b6ff" d="M 74.945312 186.921875 C 73.011719 187.542969 71.152344 189.160156 71.003906 191.191406 C 70.945312 191.996094 71.21875 192.65625 72.191406 192.738281 C 73.15625 192.820312 74.023438 192.238281 74.789062 191.59375 C 75.503906 191 76.066406 190.351562 76.855469 189.84375 C 77.609375 189.355469 78.695312 188.636719 78.3125 187.566406 C 77.925781 186.484375 75.90625 186.613281 74.945312 186.921875 " fill-opacity="1" fill-rule="nonzero"/></g><path fill="#ffffff" d="M 79.128906 190.851562 C 79.128906 191.636719 78.792969 192.277344 78.375 192.277344 C 77.960938 192.277344 77.625 191.636719 77.625 190.851562 C 77.625 190.0625 77.960938 189.421875 78.375 189.421875 C 78.792969 189.421875 79.128906 190.0625 79.128906 190.851562 " fill-opacity="1" fill-rule="nonzero"/><path fill="#ffffff" d="M 74.835938 190.851562 C 74.835938 191.636719 74.5 192.277344 74.082031 192.277344 C 73.667969 192.277344 73.332031 191.636719 73.332031 190.851562 C 73.332031 190.0625 73.667969 189.421875 74.082031 189.421875 C 74.5 189.421875 74.835938 190.0625 74.835938 190.851562 " fill-opacity="1" fill-rule="nonzero"/><path fill="#ffffff" d="M 79.183594 195.613281 C 79.183594 195.613281 79.167969 195.585938 79.140625 195.539062 C 79.113281 195.488281 79.074219 195.414062 79.015625 195.328125 C 79.003906 195.308594 78.988281 195.285156 78.972656 195.261719 C 78.957031 195.238281 78.941406 195.214844 78.921875 195.1875 C 78.882812 195.140625 78.84375 195.085938 78.800781 195.03125 C 78.753906 194.980469 78.707031 194.921875 78.652344 194.863281 C 78.59375 194.808594 78.539062 194.746094 78.476562 194.691406 C 78.410156 194.636719 78.347656 194.574219 78.269531 194.523438 C 78.234375 194.492188 78.199219 194.464844 78.160156 194.4375 C 78.121094 194.410156 78.082031 194.386719 78.039062 194.359375 C 78.019531 194.347656 78 194.332031 77.980469 194.320312 C 77.957031 194.308594 77.9375 194.296875 77.914062 194.28125 C 77.871094 194.257812 77.828125 194.234375 77.785156 194.210938 C 77.738281 194.1875 77.691406 194.164062 77.644531 194.144531 C 77.625 194.132812 77.601562 194.121094 77.578125 194.109375 C 77.550781 194.101562 77.527344 194.089844 77.503906 194.082031 C 77.3125 194 77.101562 193.945312 76.890625 193.898438 C 76.835938 193.886719 76.78125 193.878906 76.726562 193.871094 C 76.703125 193.863281 76.671875 193.863281 76.644531 193.859375 L 76.5625 193.851562 C 76.453125 193.835938 76.34375 193.835938 76.234375 193.832031 L 76.222656 193.832031 C 76.214844 193.832031 76.230469 193.832031 76.230469 193.832031 L 76.199219 193.832031 L 76.152344 193.835938 L 76.066406 193.835938 L 75.976562 193.839844 L 75.898438 193.847656 C 75.84375 193.855469 75.792969 193.859375 75.738281 193.867188 C 75.683594 193.878906 75.632812 193.886719 75.578125 193.898438 C 75.523438 193.902344 75.472656 193.921875 75.421875 193.933594 C 75.367188 193.949219 75.316406 193.957031 75.265625 193.976562 C 75.214844 193.992188 75.164062 194.007812 75.113281 194.027344 C 75.0625 194.042969 75.015625 194.066406 74.964844 194.085938 C 74.941406 194.09375 74.917969 194.101562 74.894531 194.113281 C 74.871094 194.125 74.847656 194.136719 74.824219 194.148438 C 74.777344 194.167969 74.734375 194.191406 74.6875 194.214844 C 74.644531 194.238281 74.597656 194.261719 74.558594 194.289062 C 74.535156 194.300781 74.515625 194.3125 74.492188 194.324219 C 74.472656 194.339844 74.453125 194.351562 74.433594 194.363281 C 74.390625 194.390625 74.351562 194.417969 74.3125 194.445312 C 74.273438 194.472656 74.238281 194.5 74.199219 194.527344 C 74.125 194.582031 74.0625 194.644531 73.996094 194.699219 C 73.960938 194.726562 73.933594 194.757812 73.90625 194.785156 C 73.875 194.8125 73.847656 194.84375 73.820312 194.871094 C 73.765625 194.925781 73.71875 194.984375 73.667969 195.039062 C 73.582031 195.148438 73.503906 195.246094 73.449219 195.332031 C 73.386719 195.417969 73.347656 195.488281 73.320312 195.539062 C 73.292969 195.585938 73.277344 195.613281 73.277344 195.613281 C 73.277344 195.613281 73.28125 195.582031 73.296875 195.527344 C 73.308594 195.472656 73.324219 195.390625 73.363281 195.292969 C 73.371094 195.265625 73.382812 195.238281 73.390625 195.210938 C 73.398438 195.199219 73.402344 195.183594 73.40625 195.167969 C 73.414062 195.15625 73.421875 195.140625 73.425781 195.125 C 73.453125 195.066406 73.480469 195.003906 73.515625 194.9375 C 73.554688 194.871094 73.59375 194.800781 73.636719 194.730469 C 73.664062 194.695312 73.6875 194.65625 73.714844 194.621094 C 73.738281 194.585938 73.765625 194.546875 73.796875 194.511719 C 73.855469 194.441406 73.914062 194.363281 73.988281 194.292969 C 74.023438 194.257812 74.0625 194.21875 74.097656 194.183594 C 74.136719 194.148438 74.179688 194.113281 74.21875 194.078125 C 74.238281 194.0625 74.261719 194.042969 74.28125 194.023438 C 74.304688 194.007812 74.328125 193.992188 74.347656 193.976562 C 74.394531 193.945312 74.441406 193.910156 74.484375 193.878906 C 74.535156 193.847656 74.585938 193.816406 74.632812 193.789062 C 74.660156 193.773438 74.683594 193.757812 74.710938 193.742188 C 74.738281 193.730469 74.761719 193.714844 74.789062 193.703125 C 74.84375 193.675781 74.894531 193.648438 74.953125 193.625 C 75.007812 193.601562 75.066406 193.578125 75.121094 193.558594 C 75.179688 193.53125 75.238281 193.515625 75.296875 193.496094 C 75.359375 193.480469 75.417969 193.460938 75.480469 193.449219 C 75.539062 193.433594 75.601562 193.421875 75.664062 193.40625 C 75.726562 193.394531 75.792969 193.390625 75.859375 193.382812 L 75.957031 193.371094 L 76.136719 193.363281 L 76.179688 193.359375 L 76.234375 193.359375 C 76.488281 193.363281 76.742188 193.390625 76.988281 193.449219 C 77.019531 193.457031 77.050781 193.464844 77.078125 193.472656 L 77.167969 193.5 C 77.226562 193.515625 77.289062 193.53125 77.34375 193.558594 C 77.402344 193.578125 77.457031 193.601562 77.515625 193.621094 C 77.570312 193.648438 77.625 193.675781 77.675781 193.699219 C 77.703125 193.714844 77.730469 193.726562 77.757812 193.738281 C 77.78125 193.753906 77.808594 193.769531 77.832031 193.785156 C 77.882812 193.8125 77.933594 193.84375 77.980469 193.875 C 78.027344 193.90625 78.074219 193.9375 78.121094 193.972656 C 78.144531 193.988281 78.164062 194.003906 78.1875 194.019531 C 78.207031 194.039062 78.230469 194.054688 78.25 194.074219 C 78.292969 194.109375 78.332031 194.144531 78.371094 194.175781 C 78.410156 194.214844 78.445312 194.25 78.480469 194.285156 C 78.554688 194.355469 78.617188 194.433594 78.675781 194.503906 C 78.707031 194.539062 78.730469 194.582031 78.757812 194.617188 C 78.78125 194.652344 78.808594 194.6875 78.832031 194.722656 C 78.875 194.796875 78.914062 194.867188 78.953125 194.933594 C 78.984375 195 79.015625 195.0625 79.039062 195.125 C 79.054688 195.152344 79.066406 195.183594 79.074219 195.210938 C 79.082031 195.238281 79.09375 195.265625 79.101562 195.289062 C 79.140625 195.390625 79.152344 195.472656 79.164062 195.527344 C 79.175781 195.582031 79.183594 195.613281 79.183594 195.613281 " fill-opacity="1" fill-rule="nonzero"/><g clip-path="url(#7194cae786)"><path fill="#38b6ff" d="M 58.820312 182.339844 C 58.820312 185.691406 56.027344 188.414062 52.589844 188.414062 C 49.140625 188.414062 46.347656 185.691406 46.347656 182.339844 C 46.347656 179.308594 48.867188 176.257812 52.589844 176.257812 C 56.027344 176.257812 58.820312 178.976562 58.820312 182.339844 Z M 58.820312 182.339844 " fill-opacity="1" fill-rule="nonzero"/></g><path fill="#ffffff" d="M 50.648438 181.941406 C 50.671875 182.449219 50.410156 182.878906 50.0625 182.902344 C 49.695312 182.925781 49.382812 182.53125 49.351562 182.019531 C 49.324219 181.503906 49.585938 181.082031 49.945312 181.054688 C 50.296875 181.035156 50.613281 181.429688 50.648438 181.941406 Z M 50.648438 181.941406 " fill-opacity="1" fill-rule="evenodd"/><path fill="#ffffff" d="M 55.667969 181.976562 C 55.695312 182.484375 55.425781 182.921875 55.074219 182.929688 C 54.714844 182.957031 54.402344 182.558594 54.371094 182.050781 C 54.34375 181.539062 54.605469 181.117188 54.96875 181.089844 C 55.316406 181.070312 55.632812 181.464844 55.667969 181.976562 Z M 55.667969 181.976562 " fill-opacity="1" fill-rule="evenodd"/><path fill="#ffffff" d="M 51.363281 181.78125 C 51.351562 181.78125 51.34375 181.78125 51.332031 181.777344 C 49.234375 181.511719 48.488281 180.78125 48.457031 180.75 C 48.359375 180.652344 48.363281 180.496094 48.460938 180.398438 C 48.558594 180.304688 48.710938 180.304688 48.8125 180.402344 C 48.832031 180.421875 49.515625 181.046875 51.394531 181.289062 C 51.527344 181.304688 51.625 181.429688 51.609375 181.566406 C 51.59375 181.6875 51.484375 181.78125 51.363281 181.78125 Z M 51.363281 181.78125 " fill-opacity="1" fill-rule="nonzero"/><path fill="#ffffff" d="M 53.503906 181.78125 C 53.378906 181.78125 53.277344 181.6875 53.257812 181.566406 C 53.242188 181.429688 53.339844 181.304688 53.472656 181.289062 C 55.378906 181.046875 56.054688 180.40625 56.058594 180.398438 C 56.160156 180.304688 56.3125 180.308594 56.410156 180.402344 C 56.507812 180.5 56.507812 180.65625 56.410156 180.75 C 56.378906 180.78125 55.628906 181.511719 53.535156 181.777344 C 53.523438 181.78125 53.515625 181.78125 53.503906 181.78125 Z M 53.503906 181.78125 " fill-opacity="1" fill-rule="nonzero"/><path fill="#ffffff" d="M 51.152344 184.4375 C 51.046875 184.4375 50.957031 184.351562 50.957031 184.242188 C 50.953125 184.015625 51.050781 183.796875 51.234375 183.609375 C 51.535156 183.308594 52.035156 183.132812 52.578125 183.132812 C 53.09375 183.132812 53.582031 183.304688 53.878906 183.59375 C 54.0625 183.777344 54.164062 183.996094 54.164062 184.222656 C 54.164062 184.332031 54.078125 184.417969 53.96875 184.421875 L 53.964844 184.421875 C 53.859375 184.421875 53.769531 184.332031 53.769531 184.222656 C 53.769531 184.074219 53.675781 183.953125 53.601562 183.878906 C 53.378906 183.660156 52.984375 183.527344 52.574219 183.527344 C 52.5625 183.527344 52.554688 183.527344 52.550781 183.527344 C 52.128906 183.527344 51.730469 183.667969 51.515625 183.886719 C 51.4375 183.964844 51.351562 184.085938 51.351562 184.238281 C 51.351562 184.347656 51.261719 184.4375 51.152344 184.4375 Z M 51.152344 184.4375 " fill-opacity="1" fill-rule="nonzero"/><g clip-path="url(#d36e06ec44)"><path fill="#38b6ff" d="M 41.589844 154.101562 C 41.589844 154.609375 41.492188 155.101562 41.300781 155.570312 C 41.105469 156.042969 40.828125 156.457031 40.464844 156.816406 C 40.105469 157.179688 39.691406 157.457031 39.21875 157.652344 C 38.75 157.84375 38.261719 157.941406 37.75 157.941406 C 37.242188 157.941406 36.75 157.84375 36.28125 157.652344 C 35.808594 157.457031 35.394531 157.179688 35.035156 156.816406 C 34.675781 156.457031 34.398438 156.042969 34.203125 155.570312 C 34.007812 155.101562 33.910156 154.609375 33.910156 154.101562 C 33.910156 153.59375 34.007812 153.101562 34.203125 152.632812 C 34.398438 152.160156 34.675781 151.746094 35.035156 151.386719 C 35.394531 151.027344 35.808594 150.746094 36.28125 150.554688 C 36.75 150.359375 37.242188 150.261719 37.75 150.261719 C 38.261719 150.261719 38.75 150.359375 39.21875 150.554688 C 39.691406 150.746094 40.105469 151.027344 40.464844 151.386719 C 40.828125 151.746094 41.105469 152.160156 41.300781 152.632812 C 41.492188 153.101562 41.589844 153.59375 41.589844 154.101562 Z M 41.589844 154.101562 " fill-opacity="1" fill-rule="nonzero"/></g><path fill="#ffffff" d="M 36.878906 153.796875 C 36.878906 154.007812 36.824219 154.1875 36.722656 154.332031 C 36.617188 154.480469 36.492188 154.554688 36.34375 154.554688 C 36.199219 154.554688 36.074219 154.480469 35.96875 154.332031 C 35.863281 154.1875 35.8125 154.007812 35.8125 153.796875 C 35.8125 153.589844 35.863281 153.410156 35.96875 153.265625 C 36.074219 153.117188 36.199219 153.042969 36.34375 153.042969 C 36.492188 153.042969 36.617188 153.117188 36.722656 153.265625 C 36.824219 153.410156 36.878906 153.589844 36.878906 153.796875 Z M 36.878906 153.796875 " fill-opacity="1" fill-rule="nonzero"/><path fill="#ffffff" d="M 39.652344 153.796875 C 39.652344 154.007812 39.601562 154.1875 39.496094 154.332031 C 39.390625 154.480469 39.265625 154.554688 39.121094 154.554688 C 38.972656 154.554688 38.847656 154.480469 38.742188 154.332031 C 38.640625 154.1875 38.585938 154.007812 38.585938 153.796875 C 38.585938 153.589844 38.640625 153.410156 38.742188 153.265625 C 38.847656 153.117188 38.972656 153.042969 39.121094 153.042969 C 39.265625 153.042969 39.390625 153.117188 39.496094 153.265625 C 39.601562 153.410156 39.652344 153.589844 39.652344 153.796875 Z M 39.652344 153.796875 " fill-opacity="1" fill-rule="nonzero"/><path fill="#ffffff" d="M 39.257812 155.839844 L 36.242188 155.839844 C 36.121094 155.839844 36.023438 155.742188 36.023438 155.621094 C 36.023438 155.5 36.121094 155.402344 36.242188 155.402344 L 39.257812 155.402344 C 39.378906 155.402344 39.476562 155.5 39.476562 155.621094 C 39.476562 155.742188 39.378906 155.839844 39.257812 155.839844 Z M 39.257812 155.839844 " fill-opacity="1" fill-rule="nonzero"/><g clip-path="url(#d3150eb6cf)"><g clip-path="url(#adda3ab17e)"><path fill="#38b6ff" d="M 225.601562 139.578125 L 364.078125 139.578125 L 364.078125 198.660156 L 225.601562 198.660156 Z M 225.601562 139.578125 " fill-opacity="1" fill-rule="nonzero"/></g></g><g fill="#38b6ff" fill-opacity="1"><g transform="translate(100.178347, 185.169187)"><g><path d="M 9.265625 -19.328125 L 16.75 -6.84375 L 22.703125 -6.84375 L 30.1875 -19.328125 L 30.1875 0 L 36.140625 0 L 36.140625 -30.34375 L 30.1875 -30.34375 L 19.734375 -12.34375 L 9.265625 -30.34375 L 3.328125 -30.34375 L 3.328125 0 L 9.265625 0 Z M 9.265625 -19.328125 "/></g></g></g><g fill="#38b6ff" fill-opacity="1"><g transform="translate(139.685844, 185.169187)"><g><path d="M 14.171875 -5.3125 C 9.46875 -5.3125 7.484375 -8.484375 7.484375 -12.390625 C 7.484375 -16.3125 9.46875 -19.484375 14.171875 -19.484375 C 18.890625 -19.484375 20.875 -16.3125 20.875 -12.390625 C 20.875 -8.484375 18.890625 -5.3125 14.171875 -5.3125 Z M 14.171875 0.25 C 22.15625 0.25 26.828125 -5.40625 26.828125 -12.390625 C 26.828125 -19.390625 22.15625 -25.03125 14.171875 -25.03125 C 6.203125 -25.03125 1.53125 -19.390625 1.53125 -12.390625 C 1.53125 -5.40625 6.203125 0.25 14.171875 0.25 Z M 14.171875 0.25 "/></g></g></g><g fill="#38b6ff" fill-opacity="1"><g transform="translate(168.040033, 185.169187)"><g><path d="M 14.171875 -5.3125 C 9.46875 -5.3125 7.484375 -8.484375 7.484375 -12.390625 C 7.484375 -16.3125 9.46875 -19.484375 14.171875 -19.484375 C 18.890625 -19.484375 20.875 -16.3125 20.875 -12.390625 C 20.875 -8.484375 18.890625 -5.3125 14.171875 -5.3125 Z M 14.171875 0.25 C 22.15625 0.25 26.828125 -5.40625 26.828125 -12.390625 C 26.828125 -19.390625 22.15625 -25.03125 14.171875 -25.03125 C 6.203125 -25.03125 1.53125 -19.390625 1.53125 -12.390625 C 1.53125 -5.40625 6.203125 0.25 14.171875 0.25 Z M 14.171875 0.25 "/></g></g></g><g fill="#38b6ff" fill-opacity="1"><g transform="translate(196.394222, 185.169187)"><g><path d="M 20.875 -12.390625 C 20.875 -7.53125 18.34375 -5.3125 14.28125 -5.3125 C 9.375 -5.3125 7.484375 -8.484375 7.484375 -12.390625 C 7.484375 -16.3125 9.375 -19.484375 14.28125 -19.484375 C 18.34375 -19.484375 20.875 -17.25 20.875 -12.390625 Z M 20.875 -34.703125 L 20.875 -21.96875 C 19.1875 -23.84375 16.8125 -25.03125 13.578125 -25.03125 C 6.546875 -25.03125 1.53125 -19.4375 1.53125 -12.34375 C 1.53125 -5.75 5.84375 0.25 14.234375 0.25 C 22.359375 0.25 26.828125 -5.40625 26.828125 -12.390625 L 26.828125 -34.703125 Z M 20.875 -34.703125 "/></g></g></g><g fill="#ffffff" fill-opacity="1"><g transform="translate(226.190058, 185.169187)"><g><path d="M 26.171875 -6.84375 C 24.296875 -5.953125 20.921875 -5.40625 17.84375 -5.40625 C 10.5625 -5.40625 8.234375 -9.671875 8.234375 -15.171875 C 8.234375 -20.625 10.5625 -24.84375 17.84375 -24.84375 C 20.921875 -24.84375 24.296875 -24.296875 26.171875 -23.40625 L 26.171875 -29.5 C 23.75 -30.25 20.625 -30.59375 17.546875 -30.59375 C 7.78125 -30.59375 2.28125 -23.75 2.28125 -15.125 C 2.28125 -6.5 7.78125 0.34375 17.546875 0.34375 C 20.625 0.34375 23.75 -0.046875 26.171875 -0.75 Z M 26.171875 -6.84375 "/></g></g></g><g fill="#ffffff" fill-opacity="1"><g transform="translate(254.345966, 185.169187)"><g><path d="M 8.921875 -12.390625 C 8.921875 -16.5625 11.15625 -19.484375 15.375 -19.484375 C 19.578125 -19.484375 21.3125 -16.609375 21.3125 -12.390625 L 21.3125 0 L 27.265625 0 L 27.265625 -12.390625 C 27.265625 -19.4375 22.8125 -25.03125 16.015625 -25.03125 C 12.9375 -25.03125 10.5625 -23.890625 8.921875 -21.96875 L 8.921875 -34.703125 L 2.96875 -34.703125 L 2.96875 0 L 8.921875 0 Z M 8.921875 -12.390625 "/></g></g></g><g fill="#ffffff" fill-opacity="1"><g transform="translate(284.187257, 185.169187)"><g><path d="M 8.03125 -15.5625 C 8.921875 -17.84375 10.90625 -19.28125 14.375 -19.28125 C 17 -19.28125 18.6875 -18.4375 18.6875 -16.859375 C 18.6875 -15.265625 17 -14.421875 14.234375 -14.421875 C 12.25 -14.421875 9.8125 -14.875 8.03125 -15.5625 Z M 22.953125 -6.390625 C 21.078125 -5.796875 17.359375 -5.453125 15.21875 -5.453125 C 10.3125 -5.453125 8.28125 -7.34375 7.6875 -10.15625 C 9.625 -9.21875 12 -8.671875 14.171875 -8.671875 C 20.375 -8.671875 24.6875 -12 24.6875 -16.859375 C 24.6875 -21.71875 20.328125 -25.03125 14.171875 -25.03125 C 6.140625 -25.03125 1.53125 -19.390625 1.53125 -12.296875 C 1.53125 -5.40625 5.953125 0.296875 14.828125 0.296875 C 17.15625 0.296875 20.53125 -0.09375 22.953125 -0.796875 Z M 22.953125 -6.390625 "/></g></g></g><g fill="#ffffff" fill-opacity="1"><g transform="translate(310.558632, 185.169187)"><g><path d="M 21.96875 -6.84375 C 20.28125 -5.953125 17.296875 -5.40625 14.625 -5.40625 C 9.21875 -5.40625 7.484375 -8.484375 7.484375 -12.390625 C 7.484375 -16.265625 9.21875 -19.28125 14.625 -19.28125 C 17.296875 -19.28125 20.28125 -18.734375 21.96875 -17.84375 L 21.96875 -23.953125 C 19.828125 -24.640625 17 -25.03125 14.328125 -25.03125 C 6.140625 -25.03125 1.53125 -19.390625 1.53125 -12.34375 C 1.53125 -5.3125 6.140625 0.34375 14.328125 0.34375 C 17 0.34375 19.828125 -0.046875 21.96875 -0.75 Z M 21.96875 -6.84375 "/></g></g></g><g fill="#ffffff" fill-opacity="1"><g transform="translate(334.699347, 185.169187)"><g><path d="M 2.96875 -34.703125 L 2.96875 0 L 8.921875 0 L 8.921875 -34.703125 Z M 17.84375 -24.796875 L 17.84375 -22.359375 C 17.84375 -18.4375 15.96875 -15.265625 11.0625 -15.265625 L 8.96875 -15.265625 L 18.890625 0 L 26.28125 0 L 18.59375 -11.84375 C 22.015625 -14.125 23.796875 -18.09375 23.796875 -22.3125 L 23.796875 -24.796875 Z M 17.84375 -24.796875 "/></g></g></g></svg>